<svg id="Layer_1" data-name="Layer 1" xmlns="http://www.w3.org/2000/svg" xmlns:xlink="http://www.w3.org/1999/xlink" viewBox="0 0 1000 1000"><defs><style>.cls-1{font-size:90.6px;fill:#807f7f;font-family:Roboto-Medium, Roboto;font-weight:500;letter-spacing:0.07em;}.cls-2{letter-spacing:0.03em;}.cls-3{fill:url(#linear-gradient);}.cls-4{fill:#2c3684;}.cls-5{fill:url(#linear-gradient-2);}.cls-6{fill:url(#linear-gradient-3);}.cls-7{fill:url(#linear-gradient-4);}.cls-8{fill:url(#linear-gradient-5);}.cls-9{fill:url(#linear-gradient-6);}.cls-10{fill:url(#linear-gradient-7);}.cls-11{fill:url(#linear-gradient-8);}.cls-12{fill:url(#linear-gradient-9);}.cls-13{fill:url(#linear-gradient-10);}.cls-14{fill:url(#linear-gradient-11);}.cls-15{fill:url(#linear-gradient-12);}.cls-16{fill:url(#linear-gradient-13);}</style><linearGradient id="linear-gradient" x1="312.56" y1="346.3" x2="469.05" y2="346.3" gradientUnits="userSpaceOnUse"><stop offset="0" stop-color="#1a4d9b"/><stop offset="1" stop-color="#1f62a8"/></linearGradient><linearGradient id="linear-gradient-2" x1="390.8" y1="412.94" x2="469.05" y2="412.94" gradientUnits="userSpaceOnUse"><stop offset="0.14" stop-color="#204999"/><stop offset="1" stop-color="#177bb9"/></linearGradient><linearGradient id="linear-gradient-3" x1="424.5" y1="216.61" x2="580.98" y2="216.61" gradientUnits="userSpaceOnUse"><stop offset="0.14" stop-color="#0aa3c9"/><stop offset="1" stop-color="#09b3a7"/></linearGradient><linearGradient id="linear-gradient-4" x1="424.5" y1="283.71" x2="502.74" y2="283.71" gradientUnits="userSpaceOnUse"><stop offset="0.14" stop-color="#1d66a6"/><stop offset="1" stop-color="#166fad"/></linearGradient><linearGradient id="linear-gradient-5" x1="502.74" y1="287.26" x2="580.98" y2="287.26" gradientUnits="userSpaceOnUse"><stop offset="0.14" stop-color="#0da2c9"/><stop offset="1" stop-color="#16b9a7"/></linearGradient><linearGradient id="linear-gradient-6" x1="525.1" y1="83.96" x2="681.58" y2="83.96" gradientUnits="userSpaceOnUse"><stop offset="0.14" stop-color="#55ba60"/><stop offset="0.99" stop-color="#81c343"/></linearGradient><linearGradient id="linear-gradient-7" x1="525.1" y1="151.06" x2="603.34" y2="151.06" gradientUnits="userSpaceOnUse"><stop offset="0.14" stop-color="#35ac70"/><stop offset="1" stop-color="#53b963"/></linearGradient><linearGradient id="linear-gradient-8" x1="603.34" y1="156.25" x2="684.37" y2="156.25" gradientUnits="userSpaceOnUse"><stop offset="0.14" stop-color="#3fb76d"/><stop offset="0.99" stop-color="#7cc246"/></linearGradient><linearGradient id="linear-gradient-9" x1="87.48" y1="655.01" x2="262.44" y2="655.01" gradientUnits="userSpaceOnUse"><stop offset="0.14" stop-color="#303086"/><stop offset="0.99" stop-color="#12569e"/></linearGradient><linearGradient id="linear-gradient-10" x1="331.14" y1="654.77" x2="327.5" y2="744.25" gradientUnits="userSpaceOnUse"><stop offset="0.14" stop-color="#0f71b3"/><stop offset="0.89" stop-color="#1b4c9b"/></linearGradient><linearGradient id="linear-gradient-11" x1="451.16" y1="613.74" x2="445.46" y2="753.73" gradientUnits="userSpaceOnUse"><stop offset="0.14" stop-color="#186baf"/><stop offset="0.88" stop-color="#1177b9"/></linearGradient><linearGradient id="linear-gradient-12" x1="601.94" y1="684.64" x2="631.23" y2="546.65" gradientUnits="userSpaceOnUse"><stop offset="0.12" stop-color="#2096c3"/><stop offset="0.31" stop-color="#1bad96"/></linearGradient><linearGradient id="linear-gradient-13" x1="782.76" y1="770.05" x2="827.47" y2="559.41" xlink:href="#linear-gradient-12"/></defs><text class="cls-1" transform="translate(21.43 921.95)">Digital <tspan class="cls-2" x="336.08" y="0">T</tspan><tspan x="391.67" y="0">echnologies</tspan></text><polygon class="cls-3" points="312.56 347.08 390.81 398.58 469.05 346.61 390.81 294.01 312.56 347.08"/><polygon class="cls-4" points="312.56 347.08 312.56 432.88 390.81 479.72 390.81 398.58 312.56 347.08"/><polygon class="cls-5" points="469.05 346.61 390.81 398.55 390.81 479.26 469.05 429.18 469.05 346.61"/><polygon class="cls-6" points="424.5 217.39 502.74 268.89 580.98 216.92 502.74 164.32 424.5 217.39"/><polygon class="cls-7" points="424.5 217.39 424.5 303.19 502.74 350.04 502.74 268.89 424.5 217.39"/><polygon class="cls-8" points="580.98 216.92 502.74 268.86 502.74 357.6 580.98 299.49 580.98 216.92"/><polygon class="cls-9" points="525.1 84.74 603.34 136.25 681.58 84.27 603.34 31.68 525.1 84.74"/><polygon class="cls-10" points="525.1 84.74 525.1 170.54 603.34 217.39 603.34 136.25 525.1 84.74"/><polygon class="cls-11" points="681.58 84.27 603.34 136.22 603.34 228.24 684.37 166.62 681.58 84.27"/><path class="cls-12" d="M190.61,754.18q-32.93,0-55.92-12.38a85,85,0,0,1-35.1-34.42q-12.11-22-12.11-51.42,0-30.47,12.66-52.92t36.46-34.83q23.81-12.37,57.27-12.38A131,131,0,0,1,220,558.42a132.81,132.81,0,0,1,23.54,6.93,75.66,75.66,0,0,1,18.36,10.34l-15.23,38.64a93.91,93.91,0,0,0-25.31-11.84,97.1,97.1,0,0,0-26.93-3.67q-27.76,0-41.36,14.69T139.45,656q0,27.75,13.74,41.9T193.6,712a105.93,105.93,0,0,0,17.68-1.63,141.64,141.64,0,0,0,19.59-4.9l-9.25,19V678H183.26V642.9h79.18v96a147.07,147.07,0,0,1-22,8.3,172.75,172.75,0,0,1-24.35,5.17A183.51,183.51,0,0,1,190.61,754.18Z"/><path class="cls-13" d="M346,754.18q-28,0-40.54-14.15t-12.51-42.44V559.1h48.43V696a27.13,27.13,0,0,0,1.77,10.33,12.56,12.56,0,0,0,5.71,6.53,20.27,20.27,0,0,0,9.93,2.18c2,0,3.9-.09,5.71-.27a53.92,53.92,0,0,0,5.45-.82l-.55,37a88.2,88.2,0,0,1-11.42,2.45A85.42,85.42,0,0,1,346,754.18Z"/><path class="cls-14" d="M459.15,754.18q-24.48,0-42.31-8.71T389.5,721Q380,705.21,380,684q0-20.67,9.12-36.46a65.7,65.7,0,0,1,25-24.76q15.92-9,36.33-9t35.09,8.57a58.19,58.19,0,0,1,22.72,24.07q8,15.51,8,37v10.61H420.52V670.92h60.13l-4.09,3.54q0-15-6.12-22t-17.82-7.07a27,27,0,0,0-14.69,3.94,23.89,23.89,0,0,0-9.39,11.57q-3.14,7.62-3.13,19v2.18q0,13.06,3.68,20.95a22.57,22.57,0,0,0,11.56,11.43q7.89,3.54,19.86,3.53a82.73,82.73,0,0,0,21.5-3,63.73,63.73,0,0,0,20.13-9.25l12,32.38A90.88,90.88,0,0,1,489,749.69,102.19,102.19,0,0,1,459.15,754.18Z"/><path class="cls-15" d="M584,754.18q-15.51,0-27.48-5.85a46.35,46.35,0,0,1-18.64-15.78,39.75,39.75,0,0,1-6.66-22.72q0-14.69,7.61-23.13t24.62-12.1q17-3.68,45-3.68h15v22.59h-15a76.06,76.06,0,0,0-13.88,1.08,46.76,46.76,0,0,0-9.52,2.73,12.37,12.37,0,0,0-5.58,4.21,11.09,11.09,0,0,0-1.77,6.4,13.57,13.57,0,0,0,4.35,10.34q4.35,4.08,13.06,4.08a23.44,23.44,0,0,0,20.41-11.29,23.14,23.14,0,0,0,3.27-12.38V667.11q0-10.05-5-14t-17-3.94a90.3,90.3,0,0,0-23,3.26,107.19,107.19,0,0,0-24.63,10.07l-12.52-31.84a76.92,76.92,0,0,1,17.69-8.7,143.9,143.9,0,0,1,22.45-6,121.7,121.7,0,0,1,21.9-2.17q22.31,0,36.87,6.52A45,45,0,0,1,657.37,640q7.2,13.2,7.21,33.88v77H619.41V725.61H621a32.5,32.5,0,0,1-6.25,14.83A33.76,33.76,0,0,1,602,750.51,42.11,42.11,0,0,1,584,754.18Z"/><path class="cls-16" d="M692.6,750.92V617.05h47.07v23.4h-3a46.73,46.73,0,0,1,10.06-14.15,43.7,43.7,0,0,1,14.84-9.25,52.59,52.59,0,0,1,18.9-3.26q14.7,0,25,7.21t15.23,21.63h-3.81a50.66,50.66,0,0,1,46.8-28.84q15.51,0,25.58,6.39t15.1,19q5,12.66,5,32.52v79.18H861V673.1q0-11.7-3.54-16.87c-2.35-3.44-6.35-5.17-12-5.17a18.86,18.86,0,0,0-11,3.13,20,20,0,0,0-6.94,9.25,40.89,40.89,0,0,0-2.44,15.1v72.38H776.67V673.1q0-11.7-3.4-16.87t-11.83-5.17a20.13,20.13,0,0,0-11.29,3.13,17.75,17.75,0,0,0-6.94,9.25,45.22,45.22,0,0,0-2.18,15.1v72.38Z"/></svg>